<?xml version="1.0" encoding="iso-8859-1"?>
<!-- Generator: Adobe Illustrator 19.0.0, SVG Export Plug-In . SVG Version: 6.00 Build 0)  -->
<svg version="1.1" id="Capa_1" xmlns="http://www.w3.org/2000/svg" xmlns:xlink="http://www.w3.org/1999/xlink" x="0px" y="0px"
	 viewBox="0 0 511.996 511.996" style="enable-background:new 0 0 511.996 511.996;" xml:space="preserve">
<g>
	<rect x="102.398" y="332.796" style="fill:#F9CDAD;" width="307.2" height="136.533"/>
	<rect x="153.598" y="179.196" style="fill:#F9CDAD;" width="204.8" height="136.533"/>
</g>
<g>
	<path style="fill:#F07A87;" d="M76.798,341.329v68.267c0,14.14,11.46,25.6,25.6,25.6l0,0c14.14,0,25.6-11.46,25.6-25.6v-34.133
		c0-14.14,11.46-25.6,25.6-25.6l0,0c14.14,0,25.6,11.46,25.6,25.6l0,0c0,14.14,11.46,25.6,25.6,25.6l0,0
		c14.14,0,25.6-11.46,25.6-25.6l0,0c0-14.14,11.46-25.6,25.6-25.6l0,0c14.14,0,25.6,11.46,25.6,25.6v25.6
		c0,14.14,11.46,25.6,25.6,25.6l0,0c14.14,0,25.6-11.46,25.6-25.6v-25.6c0-14.14,11.46-25.6,25.6-25.6l0,0
		c14.14,0,25.6,11.46,25.6,25.6v8.533c0,14.14,11.46,25.6,25.6,25.6l0,0c14.14,0,25.6-11.46,25.6-25.6v-42.667
		c0-14.14-11.46-25.6-25.6-25.6h-307.2C88.258,315.729,76.798,327.189,76.798,341.329z"/>
	<path style="fill:#F07A87;" d="M383.998,187.729v68.267c0,14.14-11.46,25.6-25.6,25.6l0,0c-14.14,0-25.6-11.46-25.6-25.6v-34.133
		c0-14.14-11.46-25.6-25.6-25.6l0,0c-14.14,0-25.6,11.46-25.6,25.6l0,0c0,14.14-11.46,25.6-25.6,25.6l0,0
		c-14.14,0-25.6-11.46-25.6-25.6l0,0c0-14.14-11.46-25.6-25.6-25.6l0,0c-14.14,0-25.6,11.46-25.6,25.6v17.067
		c0,14.14-11.46,25.6-25.6,25.6l0,0c-14.14,0-25.6-11.46-25.6-25.6v-51.2c0-14.14,11.46-25.6,25.6-25.6h204.8
		C372.538,162.129,383.998,173.589,383.998,187.729z"/>
</g>
<path style="fill:#FBB03B;" d="M281.598,51.196c0,14.14-11.46,25.6-25.6,25.6s-25.6-11.46-25.6-25.6
	c0-17.067,25.6-42.667,25.6-42.667S281.598,34.129,281.598,51.196z"/>
<rect x="230.398" y="110.929" style="fill:#FC9D9A;" width="51.2" height="51.2"/>
<rect x="42.665" y="469.329" style="fill:#A67C52;" width="426.667" height="34.133"/>
<rect x="196.265" y="273.062" width="17.067" height="17.067"/>
<rect x="247.465" y="273.062" width="17.067" height="17.067"/>
<rect x="298.665" y="273.062" width="17.067" height="17.067"/>
<rect x="145.065" y="426.662" width="17.067" height="17.067"/>
<rect x="196.265" y="426.662" width="17.067" height="17.067"/>
<rect x="247.465" y="426.662" width="17.067" height="17.067"/>
<rect x="349.865" y="426.662" width="17.067" height="17.067"/>
<path d="M102.398,179.196c0.026-23.552,19.115-42.641,42.667-42.667h17.067v-17.067h-17.067
	c-32.973,0.034-59.699,26.761-59.733,59.733v42.667h17.067V179.196z"/>
<rect x="85.331" y="238.929" width="17.067" height="17.067"/>
<path d="M418.131,273.062h-8.533v17.067h8.533c23.552,0.026,42.641,19.115,42.667,42.667v42.667h17.067v-42.667
	C477.822,299.823,451.104,273.097,418.131,273.062z"/>
<rect x="460.798" y="392.529" width="17.067" height="17.067"/>
<path d="M469.331,460.796h-51.2v-43.878c15.027-3.883,25.54-17.408,25.6-32.922v-42.667c0-18.85-15.283-34.133-34.133-34.133
	h-42.667v-18.278c15.027-3.883,25.54-17.408,25.6-32.922v-68.267c0-18.85-15.283-34.133-34.133-34.133h-68.267v-42.667
	c0-4.71-3.823-8.533-8.533-8.533h-17.067V84.117c15.027-3.883,25.54-17.408,25.6-32.922c0-20.028-25.225-45.824-28.1-48.7
	c-3.328-3.328-8.738-3.328-12.066,0c-2.876,2.876-28.1,28.672-28.1,48.7c0.06,15.514,10.573,29.039,25.6,32.922v18.278h-17.067
	c-4.71,0-8.533,3.823-8.533,8.533v42.667h-68.267c-18.85,0-34.133,15.283-34.133,34.133v51.2c0.06,15.514,10.573,29.039,25.6,32.922
	v35.345h-42.667c-18.85,0-34.133,15.283-34.133,34.133v68.267c0.06,15.514,10.573,29.039,25.6,32.922v18.278h-51.2
	c-4.71,0-8.533,3.823-8.533,8.533v34.133c0,4.71,3.823,8.533,8.533,8.533h426.667c4.71,0,8.533-3.823,8.533-8.533v-34.133
	C477.865,464.619,474.042,460.796,469.331,460.796z M238.931,51.196c0-7.45,8.678-20.318,17.067-30.08
	c8.388,9.762,17.067,22.63,17.067,30.08c0,9.429-7.637,17.067-17.067,17.067S238.931,60.617,238.931,51.196z M238.931,119.462
	h34.133v34.133h-34.133V119.462z M136.531,238.929v-51.2c0-9.429,7.637-17.067,17.067-17.067h204.8
	c9.429,0,17.067,7.637,17.067,17.067v68.267c0,9.429-7.637,17.067-17.067,17.067s-17.067-7.637-17.067-17.067v-34.133
	c0-18.85-15.283-34.133-34.133-34.133s-34.133,15.283-34.133,34.133c0,9.429-7.637,17.067-17.067,17.067
	s-17.067-7.637-17.067-17.067c0-18.85-15.283-34.133-34.133-34.133s-34.133,15.283-34.133,34.133v17.067
	c0,9.429-7.637,17.067-17.067,17.067C144.169,255.996,136.531,248.35,136.531,238.929z M162.131,271.851
	c15.027-3.883,25.54-17.408,25.6-32.922v-17.067c0-9.429,7.637-17.067,17.067-17.067c9.429,0,17.067,7.637,17.067,17.067
	c0,18.85,15.283,34.133,34.133,34.133s34.133-15.283,34.133-34.133c0-9.429,7.637-17.067,17.067-17.067s17.067,7.637,17.067,17.067
	v34.133c0.06,15.514,10.573,29.039,25.6,32.922v18.278H162.131V271.851z M85.331,409.596v-68.267
	c0-9.429,7.637-17.067,17.067-17.067h307.2c9.429,0,17.067,7.637,17.067,17.067v42.667c0,9.429-7.637,17.067-17.067,17.067
	c-9.429,0-17.067-7.637-17.067-17.067v-8.533c0-18.85-15.283-34.133-34.133-34.133s-34.133,15.283-34.133,34.133v25.6
	c0,9.429-7.637,17.067-17.067,17.067s-17.067-7.637-17.067-17.067v-25.6c0-18.85-15.283-34.133-34.133-34.133
	s-34.133,15.283-34.133,34.133c0,9.429-7.637,17.067-17.067,17.067c-9.429,0-17.067-7.637-17.067-17.067
	c0-18.85-15.283-34.133-34.133-34.133s-34.133,15.283-34.133,34.133v34.133c0,9.429-7.637,17.067-17.067,17.067
	S85.331,419.017,85.331,409.596z M110.931,442.517c15.027-3.883,25.54-17.408,25.6-32.922v-34.133
	c0-9.429,7.637-17.067,17.067-17.067c9.429,0,17.067,7.637,17.067,17.067c0,18.85,15.283,34.133,34.133,34.133
	s34.133-15.283,34.133-34.133c0-9.429,7.637-17.067,17.067-17.067s17.067,7.637,17.067,17.067v25.6
	c0,18.85,15.283,34.133,34.133,34.133s34.133-15.283,34.133-34.133v-25.6c0-9.429,7.637-17.067,17.067-17.067
	s17.067,7.637,17.067,17.067v8.533c0.06,15.514,10.573,29.039,25.6,32.922v43.878H110.931V442.517z M460.798,494.929h-409.6v-17.067
	h409.6V494.929z"/>
<g>
</g>
<g>
</g>
<g>
</g>
<g>
</g>
<g>
</g>
<g>
</g>
<g>
</g>
<g>
</g>
<g>
</g>
<g>
</g>
<g>
</g>
<g>
</g>
<g>
</g>
<g>
</g>
<g>
</g>
</svg>
