<?xml version="1.0" encoding="iso-8859-1"?>
<!-- Generator: Adobe Illustrator 19.0.0, SVG Export Plug-In . SVG Version: 6.00 Build 0)  -->
<svg version="1.1" id="Capa_1" xmlns="http://www.w3.org/2000/svg" xmlns:xlink="http://www.w3.org/1999/xlink" x="0px" y="0px"
	 viewBox="0 0 512 512" style="enable-background:new 0 0 512 512;" xml:space="preserve">
<rect x="242.759" y="44.138" style="fill:#A67C52;" width="17.655" height="61.793"/>
<g>
	<rect x="92.69" y="335.448" style="fill:#F9CDAD;" width="317.793" height="141.241"/>
	<rect x="145.655" y="176.552" style="fill:#F9CDAD;" width="211.862" height="141.241"/>
</g>
<g>
	<path style="fill:#F07A87;" d="M66.207,344.276v70.621c0,14.627,11.855,26.483,26.483,26.483l0,0
		c14.627,0,26.483-11.855,26.483-26.483v-35.31c0-14.627,11.855-26.483,26.483-26.483l0,0c14.627,0,26.483,11.855,26.483,26.483l0,0
		c0,14.627,11.855,26.483,26.483,26.483l0,0c14.627,0,26.483-11.855,26.483-26.483l0,0c0-14.627,11.855-26.483,26.483-26.483l0,0
		c14.627,0,26.483,11.855,26.483,26.483v26.483c0,14.627,11.855,26.483,26.483,26.483l0,0c14.627,0,26.483-11.855,26.483-26.483
		v-26.483c0-14.627,11.855-26.483,26.483-26.483l0,0c14.627,0,26.483,11.855,26.483,26.483v8.828
		c0,14.627,11.855,26.483,26.483,26.483l0,0c14.627,0,26.483-11.855,26.483-26.483v-44.138c0-14.627-11.855-26.483-26.483-26.483
		H92.69C78.062,317.793,66.207,329.649,66.207,344.276z"/>
	<path style="fill:#F07A87;" d="M384,185.379V256c0,14.627-11.855,26.483-26.483,26.483l0,0c-14.627,0-26.483-11.855-26.483-26.483
		v-35.31c0-14.627-11.855-26.483-26.483-26.483l0,0c-14.627,0-26.483,11.855-26.483,26.483l0,0
		c0,14.627-11.855,26.483-26.483,26.483l0,0c-14.627,0-26.483-11.855-26.483-26.483l0,0c0-14.627-11.855-26.483-26.483-26.483l0,0
		c-14.627,0-26.483,11.855-26.483,26.483v17.655c0,14.627-11.855,26.483-26.483,26.483l0,0c-14.627,0-26.483-11.855-26.483-26.483
		v-52.966c0-14.627,11.855-26.483,26.483-26.483h211.862C372.145,158.897,384,170.752,384,185.379z"/>
</g>
<g>
	<rect x="189.793" y="273.655" style="fill:#83AF9B;" width="17.655" height="17.655"/>
	<rect x="242.759" y="273.655" style="fill:#83AF9B;" width="17.655" height="17.655"/>
	<rect x="295.724" y="273.655" style="fill:#83AF9B;" width="17.655" height="17.655"/>
	<rect x="136.828" y="432.552" style="fill:#83AF9B;" width="17.655" height="17.655"/>
	<rect x="189.793" y="432.552" style="fill:#83AF9B;" width="17.655" height="17.655"/>
	<rect x="242.759" y="432.552" style="fill:#83AF9B;" width="17.655" height="17.655"/>
	<rect x="348.69" y="432.552" style="fill:#83AF9B;" width="17.655" height="17.655"/>
</g>
<g>
	<path style="fill:#FC9D9A;" d="M92.69,220.69H75.034v-44.138c0.035-34.11,27.683-61.758,61.793-61.793h17.655v17.655h-17.655
		c-24.364,0.026-44.111,19.774-44.138,44.138V220.69z"/>
	<rect x="75.034" y="238.345" style="fill:#FC9D9A;" width="17.655" height="17.655"/>
	<path style="fill:#FC9D9A;" d="M481.103,379.586h-17.655v-44.138c-0.026-24.364-19.774-44.111-44.138-44.138h-8.828v-17.655h8.828
		c34.11,0.035,61.758,27.683,61.793,61.793V379.586z"/>
	<rect x="463.448" y="397.241" style="fill:#FC9D9A;" width="17.655" height="17.655"/>
</g>
<path style="fill:#FBB03B;" d="M278.069,44.138c0,14.627-11.855,26.483-26.483,26.483c-14.627,0-26.483-11.855-26.483-26.483
	C225.103,26.483,251.586,0,251.586,0S278.069,26.483,278.069,44.138z"/>
<rect x="225.103" y="105.931" style="fill:#FC9D9A;" width="52.966" height="52.966"/>
<rect x="30.897" y="476.69" style="fill:#A67C52;" width="441.379" height="35.31"/>
<g>
</g>
<g>
</g>
<g>
</g>
<g>
</g>
<g>
</g>
<g>
</g>
<g>
</g>
<g>
</g>
<g>
</g>
<g>
</g>
<g>
</g>
<g>
</g>
<g>
</g>
<g>
</g>
<g>
</g>
</svg>
