<?xml version="1.0" encoding="utf-8"?>
<!-- Generator: Adobe Illustrator 21.1.0, SVG Export Plug-In . SVG Version: 6.00 Build 0)  -->
<svg version="1.1" id="Calque_1" xmlns="http://www.w3.org/2000/svg" xmlns:xlink="http://www.w3.org/1999/xlink" x="0px" y="0px"
	 viewBox="0 0 432 432" style="enable-background:new 0 0 432 432;" xml:space="preserve">
<style type="text/css">
	.st0{fill:#1A1A1A;}
	.st1{fill:#D6A667;}
	.st2{fill:#FFB5B8;}
	.st3{fill:#333333;}
	.st4{fill:#E6E6E6;}
	.st5{fill:#FF9494;}
	.st6{fill:#BF86B0;}
	.st7{fill:#A2709C;}
	.st8{fill:#79778D;}
	.st9{fill:#F2BD75;}
	.st10{fill:#9A9DBE;}
	.st11{fill:#713F3E;}
	.st12{fill:#A5A184;}
	.st13{fill:#E3B3B4;}
	.st14{fill:#A87A8F;}
	.st15{fill:#9FAF88;}
	.st16{fill:#D6A1AD;}
	.st17{fill:#060845;}
	.st18{fill:#73A9A5;}
	.st19{fill:#CC7070;}
	.st20{fill:#7E8D66;}
	.st21{fill:#BA9463;}
	.st22{fill:#A34E4C;}
	.st23{fill:#A54748;}
</style>
<g>
	<g>
		<g>
			<path class="st3" d="M259.2,108.4c0.2-0.4,0.4-0.7,0.6-1.1c2.7-5,6.2-9.4,10.6-13.1c1.4-1.2,2.9-2.2,4.6-3c1.7-0.8,3.5-1.4,5.4-1
				c2.6,0.5,4.5,2.1,5.5,4.5c0.5,1.3,0.7,2.7,0.8,4.1c0.2,3.4-0.3,6.8-0.9,10.2c-0.3,1.6-0.6,3.1-0.9,4.7c0,0.2-0.1,0.3,0,0.5
				c0.4-0.1,0.5-0.4,0.7-0.7c3.1-3.7,6.6-7.1,10.5-10c1.9-1.4,3.9-2.6,6.1-3.5c1.6-0.6,3.2-1,5-0.8c3.5,0.4,6.1,2.9,6.6,6.4
				c0.3,2.4-0.1,4.7-0.6,7c-1,4.7-2.7,9.2-4.2,13.8c-1.9,5.5-3.8,11-5.1,16.7c-0.9,4.1-1.6,8.2-1.5,12.4c0.1,3.8,0.8,7.4,2.3,10.9
				c0.4,0.8,0.8,1.6,1.3,2.4c4.2,6.9,13.2,7.7,18.8,3.3c4-3.1,6.3-7.3,6.9-12.4c0.1-0.5,0.1-1.1-0.1-1.7c-0.5,0.2-0.7,0.5-1.1,0.8
				c-1.7,1.3-3.5,1.2-5.4,0.3c-1.9-0.9-2.9-2.5-2.8-4.6c0.1-2.2,1.4-3.6,3.5-4.4c3-1.1,5.7-0.3,8,1.8c2,1.8,2.8,4.1,3,6.7
				c0.1,1.8-0.1,3.6-0.6,5.3c-1.8,5.8-5.1,10.4-10.7,13c-7.9,3.7-19.9,1.5-25.4-8c-2-3.5-3.2-7.2-3.8-11.2
				c-0.8-5.3-0.3-10.5,0.7-15.7c1.2-6.2,3.2-12.1,5.3-18c1.6-4.6,3.3-9.2,4.5-13.9c0.4-1.6,0.8-3.2,0.8-4.8c0.1-1.9,0-1.9-1.8-1.5
				c-1.3,0.3-2.4,0.8-3.6,1.4c-3.8,2-7,4.8-9.9,7.9c-4.1,4.2-7.5,8.9-9.7,14.3c-0.5,1.1-1.1,1.7-2.6,1.6c-1.5-0.1-2.7-1.1-3-2.3
				c-0.1-0.6-0.1-1.1-0.1-1.7c0.3-5.8,1.2-11.6,2.2-17.3c0.5-2.9,1-5.8,1.3-8.8c0.1-1,0.1-2,0-2.9c-0.1-1.6-0.3-1.7-1.8-1.2
				c-1,0.3-1.9,0.8-2.8,1.4c-2.1,1.4-3.9,3-5.6,4.9c-4.1,4.5-7,9.6-8.9,15.4c-0.3,0.9-0.6,1.7-0.9,2.6c-0.6,1.5-1.8,2.1-3.4,1.9
				c-1.6-0.3-2.8-1.2-3.4-2.8c-0.6-1.6-0.8-3.2-1-4.9c-0.2-1.5-0.2-3.1-0.3-4.7c0-0.2,0-0.5-0.1-0.7c-0.3,0.2-0.4,0.5-0.5,0.8
				c-1.3,2.7-2.6,5.4-4.1,7.9c-0.8,1.4-1.7,2.8-2.8,4.1c-0.8,0.9-1.7,1.7-2.8,2.3c-3.2,1.8-6.7,1.2-9-1.7c-1.2-1.5-2-3.1-2.7-4.9
				c-1.5-3.5-2.3-7.2-2.7-11c-0.6-5-0.3-10,0.4-15c0.1-1.1,0.3-2.2,0.4-3.4c-0.4,0.2-0.5,0.6-0.7,0.9c-1.8,3.3-3.8,6.4-5.9,9.5
				c-0.9,1.2-1.8,2.4-2.9,3.4c-4.3,4.1-10.6,3.5-14.1-1.3c-0.2-0.2-0.2-0.5-0.6-0.6c-0.3,0.6-0.6,1.2-0.8,1.7
				c-1.3,2.7-2.7,5.3-4.5,7.7c-1.1,1.4-2.3,2.7-3.7,3.9c-3.3,2.8-7.2,3.9-11.4,3.6c-1.5-0.1-2.9-0.3-4.3-0.6
				c-4.2-1-7.7-3.3-10.3-6.7c-5.7-7.2-8.4-15.4-7.7-24.6c0.1-1.1,0.3-2.1,0.5-3.2c1.6-6.3,7.3-9.9,14.3-7.4c2.1,0.7,3.8,2,5.1,3.9
				c2.1,3,2,6.6-0.3,9.4c-1.5,1.8-3.4,3-5.5,3.9c-1.9,0.8-3.9,1.2-6,1.4c-1.3,0.1-1.3,0.1-1,1.4c1.2,4.8,3.1,9.3,6.2,13.2
				c1.9,2.5,4.3,4.3,7.5,5c1.2,0.3,2.3,0.4,3.5,0.4c2,0,3.7-0.6,5.3-1.8c1.9-1.5,3.4-3.4,4.7-5.4c2-3.2,3.5-6.6,4.8-10.1
				c0-0.1,0.1-0.2,0.1-0.3c1-2.3,1.4-4.6,1.6-7.1c0.3-4.2,1.6-8,4.2-11.4c2.7-3.6,6.2-5.6,10.7-5.9c2.8-0.2,5.5,0.5,8,1.8
				c1.4,0.7,2.7,1.6,3.8,2.7c0.2,0.2,0.3,0.4,0.6,0.4c0.3-0.2,0.5-0.6,0.7-0.9c1-1.3,2.4-1.8,4.1-1.3c1.5,0.5,2.3,1.5,2.3,3.2
				c0,1.6-0.2,3.2-0.4,4.8c-0.7,4.5-1.5,9-1.9,13.6c-0.5,6-0.6,12,0.9,17.9c0.5,2,1.2,3.9,2.1,5.7c0.3,0.6,0.7,1.2,1.2,1.7
				c0.3,0.4,0.7,0.4,1.1,0.1c0.5-0.4,0.9-0.8,1.2-1.2c0.8-1,1.5-2,2.1-3.1c2.5-4.4,4.6-9,6.7-13.7c1.4-3.1,2.7-6.1,4.1-9.2
				c0.4-0.9,0.6-1.8,0.9-2.7c0.6-2.3,1.3-4.5,2.3-6.6c0.4-0.8,0.8-1.5,1.3-2.2c1-1.2,2.4-1.4,3.8-0.7c1.4,0.8,2,1.9,1.5,3.5
				c-0.6,1.9-1.3,3.8-1.9,5.7c-1,3.2-1.5,6.5-1.8,9.9c-0.3,2.8-0.5,5.5-0.6,8.3c0,0.2,0,0.4,0,0.6
				C259.1,108.4,259.2,108.4,259.2,108.4z M208.6,91.1c0,1.6,0.2,3.2,0.6,4.8c0.3,1.2,0.8,2.3,1.7,3.2c1,1,2,1.1,3.2,0.3
				c1-0.7,1.7-1.6,2.4-2.5c1.3-1.7,2.5-3.5,3.6-5.4c2.3-3.7,4.2-7.6,6.5-11.3c0.3-0.4,0.2-0.7-0.1-1.1c-1.3-1.9-3.1-3.2-5.2-4
				c-2.3-0.8-4.4-0.5-6.4,0.9c-1.4,1-2.5,2.3-3.3,3.8C209.5,83.2,208.6,87,208.6,91.1z M167.7,86c0,0.5,0,1.1,0,1.6
				c0.1,0.8,0.1,0.9,0.9,0.8c1.1-0.2,2.2-0.3,3.3-0.7c1.8-0.6,3.4-1.4,4.6-2.8c0.8-0.9,1.3-1.9,1.3-3.2c0-2.4-2.1-4.8-4.5-5.1
				c-1.3-0.2-2.5,0.2-3.4,1.2c-0.8,0.9-1.4,2-1.7,3.2C167.8,82.7,167.6,84.3,167.7,86z"/>
			<path class="st3" d="M89.8,163.4c1.9,1.6,4,2.5,6.3,3c3.1,0.7,6.1,0.5,9.2-0.1c6.3-1.2,12-3.7,17.5-6.9
				c6.9-3.9,13.2-8.6,19.4-13.6c4.8-3.9,9.4-8,14.1-12c1.7-1.4,3.5-2.8,5.2-4.2c0.2-0.2,0.5-0.3,0.6-0.6c0-0.1-0.1-0.2-0.1-0.3
				c-3-4-5-8.4-6.8-13c-1.9-4.7-3.4-9.4-5-14.2c-0.3-0.8-0.6-1.7-1-2.4c-0.4-0.7-0.5-0.7-1.3-0.6c-1.3,0.3-2.6,0.7-3.9,1.1
				c0,0.4,0.2,0.6,0.3,0.9c2.5,5.5,4.3,11.3,5.2,17.3c0.5,3.4,0.8,6.8,0.1,10.2c-1,5.4-5.1,9.6-10.5,10.7c-2.4,0.5-4.7,0.2-7-0.6
				c-3.5-1.3-6.5-3.3-9.3-5.7c-3.2-2.7-6-5.8-8.6-9.1c-0.2-0.3-0.4-0.6-0.8-0.9c0,0.4,0,0.8,0,1.1c0.3,5.1,0,10.2-0.9,15.3
				c-0.5,2.7-1.5,5.1-3.4,7.1c-1.7,1.8-3.7,3-6.1,3.3c-1.3,0.2-2.6,0-3.9-0.5c-2.5-0.8-4.6-2.2-6.6-3.9c-4.1-3.6-7-8.1-9-13.1
				c-1.7-4.3-2.7-8.7-2.4-13.3c0.3-5,1.8-9.5,5.5-13.1c3.6-3.5,7.9-5.4,12.9-5.5c0.3,0,0.5,0.1,0.8-0.1c0.1-0.4-0.2-0.6-0.3-0.9
				c-2.5-5.6-4.4-11.3-5.5-17.3c-0.6-3.4-1-6.8-0.5-10.2c0.1-1,0.4-2,0.8-2.9c1.5-3.2,5.1-4.6,8.4-3.1c1.1,0.5,2,1.2,2.9,2
				c2.6,2.5,4.1,5.6,5,9c0.8,2.8,1.1,5.6,1.4,8.5c0.5,5.2,0.4,10.4-0.1,15.6c-0.2,2.1-0.2,4.2-0.2,6.3c0,0.4,0.1,0.9,0.3,1.3
				c3.9,6.6,8.2,12.8,13.6,18.2c2.1,2,4.2,3.9,6.6,5.6c1,0.7,2.1,1.3,3.2,1.8c4.6,1.9,8.6-0.4,9.3-5.3c0.3-2.2,0.2-4.5-0.1-6.7
				c-0.9-6.8-2.9-13.4-5.8-19.6c-0.4-0.9-0.4-0.9-1.4-0.7c-2.9,0.5-5.8,0.8-8.8,0.6c-1.7-0.1-3.4-0.4-5.1-1c-4.6-1.8-7.5-5.1-8.2-10
				c-0.7-4.7,2.4-8.7,7.1-9.4c2.7-0.4,5.3,0.2,7.6,1.6c2.7,1.5,4.8,3.5,6.8,5.8c1.8,2.1,3.2,4.3,4.6,6.7c0.4,0.8,0.4,0.8,1.3,0.5
				c1.6-0.5,3.1-1.1,4.7-1.6c0.9-0.3,1.9-0.5,2.9-0.5c2.2,0,3.8,0.9,4.9,2.8c0.6,1,1,2.1,1.4,3.3c1.7,4.9,3.3,9.8,5.3,14.6
				c1.2,2.9,2.5,5.7,4.2,8.4c0.3,0.5,0.7,1.1,1,1.6c0.4,0.6,0.4,0.6,1,0.2c1.9-1.1,3.8-2,5.9-2.7c2.6-0.9,5.3-1.4,8.1-0.9
				c2.9,0.5,5.4,1.7,7,4.3c1.5,2.5,1.6,5.1,0.3,7.7c-1.4,2.8-3.8,4.4-6.7,5.2c-3.2,0.9-6.4,0.4-9.5-0.7c-2.5-0.9-4.8-2.2-6.8-3.9
				c-0.4-0.4-0.8-0.7-1.2-1.1c-0.6-0.5-0.6-0.5-1.2,0c-0.3,0.2-0.6,0.5-1,0.7c-4.1,3.2-7.9,6.7-11.9,10.1
				c-5.6,4.8-11.3,9.5-17.4,13.7c-5.9,4-12,7.6-18.6,10.2c-3.8,1.5-7.7,2.7-11.7,3.3c-4.3,0.6-8.6,0.5-12.7-1.1
				c-3-1.2-5.6-3-7.3-5.9c-1.2-1.9-1.5-3.9-0.7-6c1.2-3.3,5-5.4,8.2-4.4c1.9,0.6,3.4,1.8,3.8,3.9c0.4,2.1-0.5,3.8-2.1,5.1
				C91.8,162.8,90.9,163.1,89.8,163.4z M108.6,128.6c0-5-0.7-10.6-1.3-15.1c0-0.3-0.2-0.6-0.3-0.8c-1.4-2.4-2.8-4.8-4.1-7.3
				c-0.2-0.4-0.5-0.6-0.8-0.7c-1.7-0.5-3.5-0.7-5.2-0.3c-3.8,0.8-6.5,3.1-8.1,6.6c-1,2.3-1.4,4.7-1.4,7.1c-0.1,4.2,0.9,8.1,2.5,12
				c1.8,4.3,4.3,8.2,7.8,11.4c1.3,1.2,2.7,2.2,4.3,2.8c1.9,0.8,3,0.5,4.2-1.2c0.7-1,1.1-2.1,1.4-3.3
				C108.4,136.2,108.6,132.4,108.6,128.6z M136.8,97.5c0-0.1,0-0.2-0.1-0.3c-1.8-3.1-3.8-6.1-6.5-8.5c-1.3-1.1-2.6-2.1-4.2-2.8
				c-0.9-0.4-1.8-0.6-2.8-0.6c-0.8,0-1.3,0.4-1.7,1.1c-0.5,0.9-0.7,1.9-0.6,2.9c0.3,3.8,2.9,6.9,6.5,8c2.1,0.6,4.2,0.7,6.3,0.5
				C134.8,97.9,135.8,97.9,136.8,97.5z M107,97.8c0.2-0.2,0.1-0.5,0.1-0.8c0.2-4.6,0.2-9.3-0.4-13.9c-0.3-2.8-0.8-5.5-1.8-8.1
				c-0.7-1.8-1.6-3.5-3-4.9c-0.3-0.3-0.7-0.6-1.1-0.9c-0.3-0.3-0.5-0.2-0.7,0.2c-0.2,0.6-0.3,1.2-0.3,1.8c-0.1,1.6,0,3.2,0.3,4.8
				c1.1,7.4,3.3,14.5,6.4,21.2C106.6,97.4,106.7,97.7,107,97.8z M170.2,128.2c2.7,3,5.8,5.2,9.8,5.9c1,0.2,2,0.2,3,0
				c1.6-0.4,2.5-1.5,2.6-3.1c0.1-1.3-0.3-2.5-1.2-3.5c-1.2-1.5-2.8-2.1-4.6-2.2C176.3,125,173.3,126.5,170.2,128.2z"/>
		</g>
		<g>
			<g>
				<path class="st3" d="M169.2,264.9c0.5-1.2,0.8-2.3,1.1-3.5c2.4-9,4.7-18,7.1-26.9c0.8-2.8,1-5.5,1.2-8.3
					c0.1-0.9,0.1-1.8,0.3-2.6c0.2-1.7,1.1-2.5,2.6-2.6c1.8-0.1,3.3,0.7,3.7,2.2c0.2,0.5,0.2,1.1,0.2,1.6c-0.1,3.2-0.2,6.3-0.3,9.5
					c-0.2,5.2-0.5,10.4,0.3,15.6c0.5,3.2,1.3,6.4,2.5,9.4c0.3,0.7,0.5,1.4,1.1,2c0.5-0.2,0.7-0.7,1-1.1c1.2-1.7,2.1-3.5,3-5.4
					c1.3-3.1,2.6-6.2,4-9.3c1.6-3.6,3.1-7.2,4.8-10.8c0.6-1.4,0.9-2.8,1-4.3c0.2-2.9,0.7-5.7,1.6-8.4c0.8-2.2,2-4.1,3.8-5.6
					c5.6-4.6,13-2.3,16.1,2.2c1.4,2,2.3,4.3,2.6,6.8c0.1,1,0,1.9-0.2,2.8c-0.1,0.7-0.6,1.1-1.2,1.4c-0.8,0.3-1.6,0.3-2.4,0
					c-0.8-0.3-1.3-0.9-1.3-1.9c0-0.9,0-1.9-0.1-2.8c-0.3-1.6-0.9-3.1-1.7-4.4c-0.3-0.5-0.6-0.9-1-1.2c-1.4-1.3-3.2-1.4-4.8-0.3
					c-1,0.7-1.7,1.6-2.3,2.7c-1.1,2-1.7,4.2-2,6.5c-1.1,7.4-0.1,14.6,2.4,21.6c0.5,1.4,1.2,2.7,2,4c0.6,0.9,1.3,1.6,2.2,2.3
					c1.2,0.9,2.5,1,3.8,0.3c0.8-0.4,1.5-0.9,2.2-1.5c1.6-1.4,2.9-3,4.1-4.7c1-1.4,1.8-2.8,2.6-4.2c2-3.6,3.8-7.3,5.6-11
					c0.2-0.4,0.2-0.7-0.1-1.2c-4.6-5.5-5.1-11.6-2.3-18.1c1.2-2.8,3.1-5,5.4-6.9c5.5-4.4,14-6.2,20.7-4c8,2.6,13,8.2,14.9,16.3
					c1.1,4.5,1.1,9.1,0.3,13.6c0,0.2-0.1,0.5-0.1,0.7c3.6-0.1,10.9-6,12.2-9.8c-1-0.4-2.1-0.9-3.1-1.3c-2.3-1.1-4.3-2.6-5.7-4.8
					c-1.3-1.9-1.8-4.1-1.4-6.4c0.5-3.1,2.6-5.1,5.7-5.5c4.6-0.6,9.1,2.1,10.8,6.5c1,2.6,1.1,5.4,0.5,8.1c-0.2,1.1-0.2,1.2,1,1.2
					c0.6,0,1.3,0,1.9,0.2c2.4,0.6,3.6,2.1,3.5,4.5c-0.1,2-0.2,4-0.3,6c-0.3,5.6-0.5,11.1-0.3,16.7c0.3,6.7,1.6,13.3,4.2,19.5
					c0.1,0.2,0.2,0.4,0.2,0.6c0.3,0.7,0.3,0.7,1,0.4c3.6-1.5,7.2-2.9,10.8-4.1c4.6-1.5,9.2-2.5,14-2.8c3.4-0.2,6.8,0,10.1,1
					c2.3,0.7,4.4,1.9,6.2,3.6c3.1,3.1,3.9,6.8,2.3,10.9c-1,2.7-2.9,4.9-5.2,6.6c-3.2,2.4-6.9,3.8-10.8,4.6c-7.3,1.5-14.4,0.6-21-2.9
					c-3.6-1.9-6.6-4.5-9.1-7.8c-0.5-0.6-0.9-1.2-1.3-1.8c-0.5-0.7-0.5-0.7-1.2-0.3c-3.9,1.8-7.7,3.7-11.6,5.5
					c-10.9,5.3-21.7,10.5-32.9,15.2c-12.5,5.3-25.3,10-38.4,13.6c-2,0.5-3.9,1-5.9,1.5c-0.2,0.1-0.5,0.1-0.6,0.3
					c0.1,0.2,0.4,0.3,0.6,0.4c2.4,1.3,4.8,2.5,7.2,3.8c0.6,0.3,0.9,0.3,1.5-0.1c8.4-6.1,17.8-9.8,27.9-11.8
					c5.8-1.1,11.5-1.6,17.4-1.4c5.7,0.3,11.3,1.2,16.6,3.4c2.1,0.9,4.1,1.9,5.9,3.4c2.1,1.7,3.7,3.8,4.4,6.5
					c0.7,2.7,0.3,5.2-1.2,7.5c-1,1.7-2.5,3.1-4.2,4.3c-2.9,2-6.1,3.1-9.4,3.9c-5.3,1.3-10.7,1.5-16.2,1.1c-14.3-0.9-27.8-5-40.7-11
					c-0.2-0.1-0.4-0.2-0.5-0.3c-0.3-0.2-0.6-0.1-0.8,0.1c-4.7,4.3-8.5,9.2-9.8,15.6c-1.5,7.4,0.5,13.9,6.2,19
					c2.7,2.4,5.9,3.8,9.4,4.3c4,0.6,8.5-1.5,10.5-5c2-3.5,2.6-7.2,1.2-11c-0.6-1.7-1.6-3.1-3-4.1c-1-0.7-2.1-1.2-3.4-1.2
					c-0.9,0-1.5,0.4-2,1.1c0.1,0.3,0.4,0.3,0.6,0.4c1.8,1.1,2.2,3.3,0.9,4.9c-1.1,1.4-3,1.9-4.8,1.4c-1.6-0.5-2.7-2-2.7-3.8
					c0-2.9,1.5-5,3.9-6.5c2.6-1.6,5.5-1.7,8.3-0.7c4.4,1.6,6.8,4.9,7.7,9.3c1.2,6-1.7,14.9-11,17.8c-4.6,1.5-9.1,1.1-13.5-0.7
					c-7.7-3.1-12.2-8.8-13.7-16.9c-0.9-5-0.1-9.8,2.1-14.4c2-4.3,4.9-7.9,8.3-11.1c0.3-0.3,0.6-0.5,0.8-0.8
					c-0.1-0.3-0.4-0.3-0.6-0.5c-3.4-1.8-6.9-3.6-10.2-5.5c-0.5-0.3-1-0.4-1.6-0.3c-6,1.2-12.1,2.1-18.2,2.8
					c-6.6,0.7-13.3,1-19.9,0.6c-7.2-0.4-14.4-1.5-21.3-3.8c-3.8-1.3-7.3-3-10.5-5.5c-2.7-2.2-4.9-4.8-6.2-8c-0.9-2.1-1.3-4.3-1-6.7
					c0.4-2.9,1.9-5.1,4.1-6.9c2.7-2.2,5.8-3.4,9.1-4c4.7-0.8,9.3-0.4,13.9,0.5c6.6,1.3,12.7,3.9,18.6,6.9
					c6.7,3.4,13.1,7.3,19.5,11.2c4.4,2.7,8.8,5.3,13.3,7.9c0.6,0.4,1.2,0.4,1.9,0.3c11.2-2.5,22.1-6.1,32.9-10.2
					c13.6-5.1,26.7-11.1,39.7-17.5c6.3-3.1,12.6-6.2,19-9.1c0.2-0.1,0.3-0.1,0.5-0.2c0.3-0.1,0.4-0.3,0.2-0.6
					c-0.1-0.2-0.2-0.5-0.4-0.7c-2.5-5.1-3.9-10.6-4.6-16.3c-0.7-5.4-0.7-10.9-0.5-16.4c0.1-3.6,0.3-7.1,0.5-10.7
					c0-0.7,0.1-1.4,0.2-2.1c0-0.3,0-0.6-0.4-0.6c-0.4,0-0.8-0.3-1.1,0.2c-0.1,0.1-0.1,0.2-0.2,0.3c-1.9,3.5-4.7,6.2-8,8.4
					c-3,2-6.3,3.4-9.8,4.2c-0.7,0.2-1,0.5-1.3,1.1c-1.7,4.5-4.1,8.6-7.6,11.9c-2,2-4.2,3.7-6.7,5.1c-3.1,1.7-6.5,2.6-10.1,2.2
					c-3-0.3-5.6-1.6-7.6-3.9c-2.4-2.7-3.8-5.8-4.4-9.3c-0.1-0.6-0.2-1.1-0.3-1.7c-0.4,0-0.4,0.3-0.5,0.5c-1,1.8-2.1,3.6-3.3,5.4
					c-1.5,2.2-3.2,4.1-5.2,5.9c-1.8,1.6-3.9,2.7-6.3,3.1c-3,0.5-5.7-0.2-8.1-1.9c-2.3-1.7-4-3.9-5.3-6.4c-1.4-2.7-2.3-5.5-2.9-8.4
					c0-0.1,0-0.2-0.1-0.3c-0.4,0.1-0.4,0.4-0.5,0.7c-1.5,3.3-2.9,6.6-4.3,9.9c-1.2,2.8-2.5,5.5-4.3,7.9c-0.5,0.7-1.1,1.5-1.8,2.1
					c-2.8,2.5-6.6,2.2-9-0.7c-0.8-0.9-1.3-2-1.8-3c-1.4-2.9-2.5-5.9-3-9.1c0-0.1-0.1-0.2-0.1-0.3c-0.3,0.3-0.3,0.7-0.4,1
					c-1,3.7-2,7.5-3.1,11.2c-0.3,1.1-0.7,2.3-1.2,3.4c-0.3,0.6-0.5,1.2-0.9,1.7c-1.8,2.5-5.2,2.9-7.5,0.9c-1.1-1-1.8-2.2-2.4-3.5
					c-1.4-2.9-2.3-5.9-3-9c-0.8-3.3-1.2-6.7-1.5-10c-0.5-5.2-0.8-10.5-1.6-15.7c-0.3-2-0.7-3.9-1.4-5.8c-0.2-0.5-0.3-1-0.7-1.4
					c-0.5,0.1-0.8,0.5-1.1,0.8c-0.8,0.8-1.6,1.7-2.2,2.7c-4.8,7-7.8,14.7-9,23.1c-0.2,1.1-0.3,2.2-0.6,3.3c-0.4,1.5-1.4,2.4-2.9,2.7
					c-1.6,0.3-3-0.2-3.9-1.6c-0.4-0.6-0.7-1.2-1-1.8c-1.3-3-2.3-6.2-2.8-9.4c-0.1-0.3-0.1-0.6-0.3-0.9c-0.2,0.3-0.3,0.6-0.3,0.9
					c-1.2,4.5-2.7,9-4.3,13.4c-0.6,1.7-1.3,3.3-2.4,4.8c-1.1,1.7-2.7,2.7-4.7,2.9c-1.5,0.2-2.9-0.3-4.2-1.1c-1-0.7-1.9-1.6-2.6-2.5
					c-1.3-1.7-2.3-3.5-3.1-5.5c-2.1-5.1-3.5-10.3-4.3-15.8c-0.2-1.3-0.3-2.6-0.5-3.8c0-0.2,0-0.4-0.2-0.6c-0.3,0.3-0.4,0.6-0.5,1
					c-1.3,3-2.6,6-4.3,8.9c-1,1.7-2.1,3.4-3.4,5c-0.8,1-1.8,1.9-2.9,2.6c-3.3,2.1-6.7,2.1-10.1,0.1c-1.5-0.9-2.7-2.2-3.7-3.6
					c-2.2-3-3.6-6.4-4.6-10c-1.7-5.9-2.2-11.9-1.7-18c0.1-1.4,0.2-2.7,0.5-4c0.5-2.1,2.3-3,4.3-2.1c0.9,0.4,1.5,1.1,1.5,2.2
					c0,1.5,0,2.9,0,4.4c0,4.1,0.2,8.2,0.8,12.3c0.6,3.7,1.5,7.4,3,10.8c0.6,1.4,1.3,2.7,2.3,3.8c0.5,0.6,1.1,1.2,1.8,1.6
					c0.7,0.4,1.5,0.4,2.2,0c0.6-0.3,1.2-0.8,1.7-1.3c1.1-1.1,1.9-2.3,2.7-3.5c1.5-2.4,2.8-5,3.9-7.6c2.1-4.9,4.4-9.9,6.2-14.9
					c0.3-1,1-1.5,2-1.7c0.7-0.2,1.5-0.1,2.2,0.1c1.1,0.4,1.8,1.1,2.1,2.3c0.2,1.2,0.3,2.5,0.4,3.7c0.2,7.7,1.1,15.3,3.1,22.7
					c0.6,2.4,1.4,4.8,2.5,7.1c0.5,1.1,1.1,2.2,1.9,3.1c0.6,0.6,0.7,0.6,1.1-0.1c0.8-1.1,1.3-2.3,1.8-3.5c1.9-5.2,3.5-10.5,4.9-15.8
					c1.4-5.7,2.8-11.5,4.1-17.2c0.3-1.2,0.3-2.5,0.5-3.7c0.2-0.9,0.3-1.7,0.7-2.6c0.8-1.8,2.9-2.6,4.7-1.6c0.7,0.4,1.2,0.9,1.3,1.7
					c0.1,0.8,0.1,1.6,0,2.4c-0.4,5.7-0.5,11.4-0.3,17.1c0.1,2.3,0.4,4.6,0.9,6.9c0,0.2,0,0.5,0.2,0.7c0.3-0.3,0.3-0.6,0.4-0.9
					c1.8-6.2,4.3-12.2,7.9-17.7c1-1.5,2-2.9,3.3-4.2c1.2-1.2,2.6-2,4.3-2.1c2.5-0.2,4.4,0.7,6,2.6c1.5,1.8,2.3,4,2.9,6.3
					c0.6,2.5,0.9,5,1.2,7.5c0.5,4.7,0.9,9.5,1.3,14.2c0.4,4.3,1.1,8.5,2.4,12.7C168.4,263.2,168.6,264.1,169.2,264.9z M196.4,313.1
					c-0.3-0.4-0.6-0.5-0.8-0.7c-4.2-2.4-8.4-4.9-12.5-7.4c-5.2-3.2-10.5-6.3-15.9-9.2c-5.1-2.7-10.4-5.1-16.1-6.5
					c-4-1-8.1-1.7-12.3-1.1c-2.5,0.3-4.8,1.1-6.8,2.6c-2.6,2-3.4,4.6-2.8,7.8c0.5,2.2,1.5,4,2.9,5.8c2,2.5,4.5,4.3,7.3,5.8
					c2.8,1.5,5.9,2.5,9,3.3c9.4,2.4,19,2.8,28.7,2.1c4.7-0.3,9.3-0.8,13.9-1.5C192.7,313.7,194.5,313.4,196.4,313.1z M222.1,321.2
					c0.2,0.3,0.5,0.4,0.8,0.5c10.9,5.1,22.3,8.7,34.3,10c5.1,0.6,10.1,0.7,15.2-0.1c2.7-0.4,5.4-1.1,7.8-2.4c1.5-0.8,2.9-1.7,3.9-3
					c1.8-2.3,2.1-4.8,1-7.4c-0.8-1.7-2-3-3.5-4.1c-1.5-1.1-3.1-1.9-4.8-2.6c-5.1-2-10.5-2.7-15.9-2.8c-5.4-0.1-10.8,0.6-16,1.8
					c-7.8,1.8-15.1,4.8-21.7,9.3C222.7,320.7,222.4,320.9,222.1,321.2z M260,237.5c2.5,0,4.6-0.1,6.7-0.4c1-0.1,1-0.2,1.2-1.1
					c1.1-4.5,1.2-9.1,0.4-13.7c-0.6-3.1-1.7-6.1-3.7-8.6c-2.3-2.9-5.2-5-9-5.7c-2.1-0.4-4.3-0.2-6.4,0.3c-5.9,1.4-10.1,5-12.1,10.8
					c-1,2.8-1,5.7,0,8.6c0.2,0.5,0.3,0.7,0.9,0.4c0.8-0.4,1.6-0.3,2.5-0.1c1.4,0.4,2.1,1.3,2.1,2.8c0,0.8-0.1,1.6-0.3,2.3
					c-0.1,0.5,0.1,0.8,0.6,1c1.3,0.6,2.7,1.2,4.1,1.6C251.4,237.1,255.9,237.5,260,237.5z M331.1,268.4c-2.1,0-4,0.2-6,0.5
					c-6.7,1.2-13.1,3.7-19.4,6.3c-0.6,0.3-0.6,0.3-0.3,0.9c1.8,3,4,5.7,6.9,7.8c4.8,3.4,10.2,4.7,16,4c2.8-0.3,5.5-1.1,7.9-2.4
					c2.9-1.6,5-3.9,6.1-7.1c0.9-3,0.1-5.7-2.4-7.6c-1.1-0.8-2.2-1.4-3.5-1.8C334.7,268.5,332.9,268.3,331.1,268.4z M266.2,241.4
					c-0.3,0-0.5,0-0.7,0c-5.4,0.4-10.8,0.1-16.2-0.8c-2.3-0.4-4.6-1-6.8-1.8c-0.6-0.2-0.7-0.2-0.7,0.4c-0.2,3.2-0.2,6.4,0.8,9.6
					c0.6,2.1,1.5,4,2.9,5.7c1.3,1.6,3,2.4,5.1,2.2c1.8-0.1,3.3-0.8,4.8-1.7c5.1-3.1,8.6-7.5,10.7-13
					C266.1,241.7,266.1,241.6,266.2,241.4z M287.9,218.6c0-1.1-0.1-1.8-0.2-2.6c-0.3-1.4-0.8-2.7-1.9-3.6c-1.9-1.7-4.5-0.9-5.2,1.6
					c-0.5,1.8-0.1,3.4,1,4.8c1.3,1.8,3.2,2.6,5.2,3.3c0.4,0.1,0.5-0.1,0.6-0.4C287.7,220.6,287.9,219.4,287.9,218.6z"/>
				<path class="st3" d="M312.5,244.4c0.7-3.2,1.6-6.2,2.9-9.1c2.9-6.3,6.6-11.9,11.6-16.7c1.2-1.1,2.5-2.1,4-2.8
					c1.9-0.9,3.9-1.2,5.9-0.8c2.5,0.5,4.3,2,5.6,4.1c1.2,1.9,1.6,4.1,1.8,6.3c0.3,3.9,0.1,7.9-0.1,11.8c-0.1,2-0.2,4.1-0.3,6.1
					c-0.1,2.2-0.2,4.5-0.2,6.7c0,2.3,0.2,4.5,0.8,6.7c0.4,1.4,1,2.7,2,3.9c1.4,1.7,2.3,1.7,3.6,0c1-1.2,1.6-2.6,2.1-4
					c1-2.8,1.5-5.7,1.6-8.7c0-0.3,0-0.7,0.1-1c0.2-1.9,2.4-3,4.1-2.1c0.6,0.3,0.8,0.9,0.8,1.5c0,1.5,0,3.1-0.2,4.6
					c-0.3,2.4-0.8,4.7-1.6,6.9c-0.8,2.1-1.9,4.1-3.6,5.6c-1.5,1.3-3.1,2.3-5.2,2.3c-2.9,0.1-5.2-1.1-6.9-3.4
					c-1.6-2.1-2.7-4.6-3.2-7.2c-0.8-3.6-0.9-7.2-0.9-10.8c0-4.5,0.3-9.1,0.4-13.6c0.1-2.7,0.1-5.5-0.3-8.2c-0.2-0.9-0.4-1.9-0.8-2.7
					c-0.4-0.8-0.5-0.8-1.4-0.7c-0.9,0.2-1.8,0.6-2.6,1.2c-1.1,0.8-2.1,1.7-3.1,2.7c-5.5,5.8-9.6,12.4-11.6,20.2
					c-0.7,2.8-1,5.7-1.1,8.6c0,0.9,0,1.8-0.1,2.7c-0.1,1.4-0.9,2.4-2.3,2.7c-1.7,0.4-3.1-0.1-4.2-1.6c-1-1.5-1.8-3-2.4-4.7
					c-1.9-4.6-3-9.4-3.5-14.4c-0.5-4.6-0.5-9.2-0.1-13.8c0.1-1.4,0.3-2.8,0.6-4.1c0.2-0.8,0.5-1.5,0.9-2.2c1-1.6,3.5-1.7,4.6-0.2
					c0.2,0.3,0.3,0.6,0.4,1c0.3,1.7,0.3,3.5,0.2,5.3c-0.1,3.3-0.1,6.6,0,9.9c0.2,3.9,0.7,7.8,1.4,11.6
					C312.2,244.1,312.3,244.2,312.5,244.4z"/>
			</g>
		</g>
		<g>
			<path class="st3" d="M266.2,196.7c-1.3,0-2.1-0.5-2.6-1.7c-1.1-2.7-1.7-5.4-2.4-8.2c-0.6-2.3-1.1-4.6-1.7-6.9
				c-0.2-0.9-0.2-1-1.2-0.9c-2.2,0.1-4.3,0.2-6.5,0.3c-0.5,0-0.6,0.3-0.7,0.7c-0.5,2.4-0.9,4.9-1.4,7.3c-0.5,2.7-1.1,5.4-1.9,8
				c-0.5,1.6-1.8,2.3-3.4,2c-1.4-0.3-1.9-1.1-1.6-2.5c0.6-2.7,1.3-5.4,1.8-8.1c2.1-11.1,4.4-22.2,6.6-33.3c0.2-0.9,0.4-1.8,0.7-2.7
				c0.4-1.2,1.2-1.7,2.5-1.6c1.5,0.1,2.6,0.8,3.2,2.2c0.4,0.9,0.7,1.8,1,2.8c2.8,9.8,4.9,19.8,7.3,29.7c0.6,2.6,1.3,5.3,2,7.9
				c0.2,0.8,0.4,1.6,0.6,2.5c0.3,1.6-0.4,2.5-2.1,2.7C266.4,196.7,266.3,196.7,266.2,196.7z M254.9,160.7c-0.1,0.5-0.2,0.9-0.3,1.2
				c-0.4,1.9-0.8,3.8-1.1,5.7c-0.5,2.5-1,4.9-1.4,7.4c-0.1,0.8-0.1,0.8,0.7,0.8c1.4-0.1,2.8-0.2,4.2-0.2c0.3,0,0.6,0,0.9,0
				c0.4,0,0.6-0.2,0.5-0.6c0-0.1-0.1-0.3-0.1-0.4c-0.9-4.1-1.9-8.3-2.8-12.4C255.3,161.7,255.3,161.2,254.9,160.7z"/>
			<path class="st3" d="M187.4,172.1c0.2-0.1,0.3-0.1,0.4-0.2c1.9-1.1,3.7-2.1,5.6-3.2c2.4-1.4,4.7-2.9,6.8-4.8
				c0.7-0.6,1.4-1.2,2.4-1.3c0.6-0.1,1.2,0,1.7,0.2c1,0.4,1.2,1.3,0.7,2.2c-0.3,0.6-0.8,1-1.2,1.5c-1.8,1.8-3.8,3.2-6,4.5
				c-2.1,1.2-4.2,2.3-6.2,3.4c-0.3,0.2-0.6,0.4-0.9,0.5c0,0.2,0,0.3,0.2,0.4c3,2.5,5.6,5.4,8.5,8.1c1.1,1,2.2,2.1,3.3,3.1
				c0.5,0.5,1,0.9,1.4,1.5c0.8,1.1,0.6,2.1-0.5,2.7c-1.3,0.7-2.5,0.7-3.7-0.2c-1.2-0.9-2.4-1.8-3.5-2.8c-2.6-2.4-5.2-4.9-7.6-7.5
				c-0.2-0.2-0.4-0.5-0.6-0.7c-0.4,0.2-0.3,0.5-0.3,0.7c0.2,3.6,0.5,7.2,0.8,10.9c0.1,1.3,0.1,2.6,0.1,3.9c0,1.1-0.6,1.8-1.5,2.2
				c-1,0.5-2,0.6-2.9-0.1c-0.4-0.3-0.6-0.7-0.6-1.1c-1-7.5-1.6-15-1.9-22.5c-0.3-5.3-0.5-10.6-0.3-15.9c0.1-2.8,0.2-5.6,0.6-8.3
				c0-0.2,0.1-0.5,0.1-0.7c0.1-1,0.6-1.8,1.6-2c1.1-0.2,2.2,0,3,0.9c0.4,0.4,0.5,1,0.5,1.5c0,2.2,0.1,4.4,0.1,6.6
				c0,5.2,0.1,10.3,0.3,15.5C187.3,171.6,187.3,171.8,187.4,172.1z"/>
			<path class="st3" d="M210.3,172.4c-0.1-5.9,0.1-11.8,0.4-17.7c0.1-1.8,0.2-3.6,0.6-5.4c0.4-1.9,1.2-2.7,3.1-2.9
				c2.2-0.2,4.4-0.2,6.6-0.2c3.7,0,7.3,0.1,11,0.2c0.9,0,1.8,0.1,2.6,0.5c1,0.4,1.5,1.2,1.4,1.9c-0.1,0.7-0.8,1.3-1.9,1.4
				c-0.6,0.1-1.2,0.1-1.7,0c-5.2-0.2-10.3-0.1-15.5-0.1c-0.9,0-0.9,0-0.8,0.8c0.2,2.8,0.1,5.6,0.1,8.3c-0.1,6.7-0.2,13.4,0,20.1
				c0,0.1,0,0.1,0,0.2c0,1.2-0.1,1.2,1.2,1c1.1-0.2,2.3-0.2,3.5-0.2c0.6,0,1.1,0.1,1.6,0.5c0.9,0.6,0.9,1.6,0.1,2.3
				c-0.6,0.5-1.3,0.6-2,0.7c-1.2,0.1-2.4,0.3-3.6,0.4c-0.6,0-0.7,0.3-0.7,0.8c0.1,2.9,0.2,5.8,0.3,8.6c0,0.8,0,0.8,0.8,0.7
				c2.1-0.2,4.2-0.4,6.3-0.7c0.7-0.1,1.5-0.1,2.2,0.2c0.7,0.3,1.2,0.7,1.3,1.5c0,0.8-0.5,1.2-1.1,1.6c-0.4,0.2-0.8,0.3-1.2,0.4
				c-3.2,0.5-6.4,0.9-9.6,1.1c-1,0.1-2-0.1-2.9-0.8c-0.6-0.4-0.9-0.9-0.9-1.6c-0.2-2-0.4-3.9-0.5-5.9
				C210.6,184.4,210.4,178.4,210.3,172.4z"/>
			<path class="st3" d="M149.4,167.4c0-2.7-0.1-5.7-0.1-8.8c0-2.8,0.1-5.6,0.4-8.3c0.1-0.7,0.2-1.3,0.4-2c0.1-0.3,0.2-0.6,0.5-0.9
				c1.2-1,3.8-0.3,4,1.3c0.2,1.4,0.3,2.9,0.3,4.4c0.2,8,0.4,15.9,0.6,23.9c0.1,4.5,0.3,8.9,0.7,13.4c0.2,2.4,0.1,2.2,2.4,2.1
				c1.7-0.1,3.4-0.2,5.1-0.3c0.6,0,1.3-0.1,1.9,0.2c0.6,0.2,1.1,0.6,1.2,1.3c0.1,0.7-0.3,1.1-0.9,1.5c-0.4,0.2-0.8,0.4-1.2,0.5
				c-3,0.6-6,0.7-9,0.5c-0.9,0-1.7-0.3-2.5-0.8c-1-0.6-1.6-1.5-1.9-2.6c-0.4-1.5-0.5-3.1-0.7-4.6
				C149.8,181.3,149.7,174.5,149.4,167.4z"/>
			<path class="st3" d="M174.4,185.4c0,0.8,0,1.6,0,2.4c0,0.9-0.4,1.5-1.2,1.9c-0.7,0.3-1.5,0.4-2.3,0.2c-0.9-0.2-1.4-0.9-1.5-1.7
				c-0.2-1.4-0.5-2.8-0.6-4.2c-0.7-6.3-1.3-12.5-1.6-18.8c-0.2-3.6-0.3-7.3-0.1-10.9c0.1-0.9,0.1-1.8,0.2-2.7c0.2-1.2,0.8-1.8,2-1.9
				c1.8-0.1,2.9,0.9,3,2.7c0.1,3.7,0.2,7.5,0.4,11.2c0.4,6.2,0.8,12.3,1.3,18.5C174.2,183.1,174.3,184.3,174.4,185.4
				C174.4,185.4,174.4,185.4,174.4,185.4z"/>
		</g>
	</g>
	<path class="st1" d="M281.9,183.4c0.4-2.7,0.2-5.3-0.3-8c0-0.1,0-0.2-0.1-0.2c-0.2-1-0.2-2,0.8-2.6c0.8-0.6,1.9-0.5,2.8,0.3
		c0.7,0.5,1.2,1.2,1.8,1.9c1,1.4,2,2.8,3,4.1c0.7,1,0.7,1,1.8,0.6c2.1-0.8,4.1-1.7,6.1-2.5c0.4-0.2,0.8-0.4,1.2-0.5
		c1.7-0.5,3.1,0.5,3,2.3c-0.1,1-0.4,2-0.9,2.9c-0.7,1.4-1.4,2.8-2.3,4.1c-0.7,1.1-0.7,2.1,0,3.2c1,1.6,1.9,3.2,2.8,4.8
		c0.3,0.5,0.6,1.1,0.7,1.6c0.4,1.5-0.7,2.8-2.3,2.6c-0.8-0.1-1.6-0.4-2.3-0.8c-1.6-0.7-3.2-1.5-4.8-2.2c-1.2-0.5-1.2-0.5-2.1,0.5
		c-0.7,0.8-1.3,1.7-1.9,2.5c-0.9,1.2-1.8,2.4-2.7,3.6c-0.2,0.3-0.5,0.6-0.8,0.9c-0.6,0.6-1.3,1-2.2,0.7c-0.9-0.3-1.3-1.1-1.3-2
		c0-1.1,0-2.3,0.1-3.4c0-0.7,0.1-1.3,0.2-2c0.2-1.1-0.2-1.9-1.2-2.5c-1.3-0.7-2.6-1.6-3.8-2.4c-0.8-0.5-1.5-1-2.3-1.5
		c-1.5-1.1-1.5-2.7,0.1-3.7c0.8-0.5,1.8-0.9,2.7-1.2c1.3-0.4,2.6-0.8,3.9-1.1C281.6,183.5,281.7,183.4,281.9,183.4z M298.6,180.2
		c-0.1-0.1-0.2-0.2-0.2-0.2c-0.5,0.2-1,0.5-1.6,0.7c-1.5,0.7-2.9,1.5-4.4,2.1c-2.3,1-3.6,0.6-5.1-1.3c-0.6-0.7-1.1-1.5-1.7-2.2
		c-0.2,0.4-0.2,0.6-0.2,0.9c0,1.3,0.1,2.7,0,4c-0.1,1.4-0.6,2-1.9,2.4c-0.3,0.1-0.6,0.2-0.9,0.3c-1.3,0.4-2.7,0.8-4.2,1.2
		c0.5,0.4,0.8,0.6,1.1,0.8c1,0.6,2.1,1.3,3.1,1.9c2.1,1.2,2.9,3,2.5,5.4c-0.1,0.4-0.1,0.8-0.1,1.2c0.4-0.2,0.7-0.5,0.9-0.8
		c0.9-1.2,1.7-2.4,2.7-3.5c1.8-2.2,3.2-2.3,5.4-1.2c0.6,0.3,1.1,0.5,1.7,0.8c0.4,0.2,0.8,0.3,1.4,0.6c-0.3-0.6-0.5-0.9-0.7-1.2
		c-0.5-0.8-1-1.7-1.5-2.6c-0.7-1.4-0.6-2.8,0.3-4.1c0.6-0.8,1.1-1.6,1.7-2.4C297.5,182.1,298,181.1,298.6,180.2z"/>
	<path class="st1" d="M206.1,128.6c-0.6-0.6-1-1.2-1.5-1.7c-0.9-0.9-1.8-1.8-2.7-2.7c-0.6-0.6-1.1-1.4-0.7-2.3
		c0.4-1,1.2-1.5,2.1-1.6c1-0.1,2.1-0.1,3.1,0.1c1.2,0.2,2.4,0.5,3.6,0.8c0.2,0,0.4,0,0.6,0.1c0.5-1.1,1-2.1,1.5-3.2
		c0.7-1.5,1.3-2.9,2-4.4c0.2-0.4,0.4-0.8,0.6-1.1c1-1.4,2.7-1.5,3.7-0.2c0.5,0.6,0.8,1.3,1,2c0.5,1.5,0.8,3,1.2,4.5
		c0.1,0.4,0.2,0.8,0.3,1.2c1.6,0.2,3.1,0.4,4.7,0.6c0.4,0.1,0.9,0.1,1.3,0.2c1.3,0.4,2.1,1.7,1.6,3c-0.3,0.8-0.8,1.5-1.4,2.1
		c-1.1,1.1-2.4,2.1-3.7,3c-0.7,0.5-1,1.1-0.9,2c0.2,1.8,0.4,3.5,0.6,5.3c0.1,0.5,0.1,1,0.1,1.5c0,1.9-1.6,3-3.3,2.4
		c-0.8-0.3-1.6-0.8-2.3-1.4c-1.3-1.1-2.5-2.2-3.6-3.4c-0.8-0.8-1.5-0.9-2.5-0.7c-1.8,0.5-3.6,1-5.4,1.4c-1.1,0.3-2.2,0.3-2.9-0.7
		c-0.7-1-0.4-2,0.2-2.9c0.4-0.7,1-1.4,1.5-2.1C205.2,129.6,205.6,129.2,206.1,128.6z M206.3,123.9c0.9,0.9,1.6,1.7,2.3,2.5
		c1.2,1.6,1.1,2.8-0.2,4.3c-0.4,0.4-0.7,0.9-1.1,1.3c0.5,0,0.9-0.1,1.3-0.2c1-0.3,2-0.6,2.9-0.9c1.7-0.5,3.1-0.2,4.3,1.2
		c0.9,1,1.8,1.9,2.7,2.8c0.2,0.2,0.4,0.3,0.7,0.5c-0.1-0.4-0.1-0.7-0.1-1c-0.1-1.6-0.3-3.1-0.4-4.7c-0.1-1.4,0.5-2.5,1.6-3.4
		c0.6-0.4,1.1-0.8,1.7-1.3c0.4-0.3,0.9-0.7,1.5-1.2c-1.1-0.1-1.9-0.1-2.7-0.2c-2.3-0.2-3.3-1-3.8-3.3c-0.2-0.8-0.3-1.5-0.5-2.5
		c-0.3,0.5-0.5,0.9-0.7,1.2c-0.9,1.5-1.7,3-2.6,4.4c-0.7,1.1-1.7,1.5-3.1,1.3C209,124.4,207.7,124.2,206.3,123.9z"/>
	<path class="st1" d="M132.3,197.4c-0.2,0.5-0.5,0.9-0.7,1.4c-0.6,1.6-1.2,3.2-1.8,4.9c-0.2,0.5-0.4,1.1-0.7,1.6
		c-1,1.6-2.8,1.6-3.7,0c-0.3-0.5-0.5-1.1-0.7-1.6c-0.3-0.7-0.6-1.5-0.8-2.2c-0.3-1.1-1.1-1.7-2.2-1.9c-1.2-0.2-2.3-0.5-3.5-0.8
		c-0.9-0.2-1.9-0.5-2.1-1.6c-0.2-1.2,0.6-1.9,1.5-2.4c1-0.6,2-1.1,3-1.6c0.4-0.2,0.8-0.4,1.2-0.6c-0.1-0.8-0.2-1.5-0.4-2.2
		c-0.4-2-0.9-4-1.3-6c-0.1-0.3-0.1-0.6-0.1-0.9c0-1.6,1.3-2.7,2.8-2.2c0.7,0.2,1.4,0.6,2,1c0.6,0.3,1.2,0.7,1.8,1.1
		c0.6,0.4,1.1,0.7,1.8,1.1c1.6-1.2,3.1-2.5,4.6-3.9c0.3-0.3,0.6-0.6,0.9-0.8c1.3-0.9,2.8-0.6,3.4,0.9c0.3,0.7,0.5,1.5,0.5,2.3
		c0,2-0.2,4-0.3,6c-0.1,0.6,0.1,1.2,0.4,1.7c0.8,1.1,1.5,2.1,2.3,3.2c0.7,1,1.2,2,0.6,3.2c-0.7,1.2-1.8,1.4-3.1,1.3
		c-1.5-0.2-3-0.4-4.6-0.6C132.9,197.5,132.6,197.4,132.3,197.4z M134.3,184.3c-0.1,0-0.1-0.1-0.2-0.1c-0.2,0.2-0.5,0.4-0.7,0.6
		c-0.8,0.7-1.5,1.4-2.3,2c-1.8,1.5-2.9,1.5-4.8,0.3c-0.7-0.5-1.4-0.9-2.3-1.5c0.1,0.5,0.1,0.7,0.1,1c0.3,1.6,0.7,3.2,1,4.9
		c0.4,1.9-0.4,3.3-2.1,4.2c-0.3,0.2-0.5,0.3-0.7,0.5c1.1,0.5,2.3,0.8,3.1,1.6c0.8,0.7,1.2,1.9,1.8,2.9c0.3-0.7,0.6-1.4,0.9-2.2
		c0.3-0.7,0.6-1.5,0.9-2.2c1-2.1,2.2-2.7,4.6-2.3c0.8,0.1,1.5,0.3,2.5,0.4c-0.6-0.9-1-1.5-1.5-2.1c-0.7-1-1-2.1-0.8-3.4
		C134,187.3,134.1,185.8,134.3,184.3z"/>
	<path class="st1" d="M185.1,203.6c1.3-0.3,2.6-0.7,3.8-1c0.5-0.1,0.9-0.3,1.4-0.3c1.2-0.1,2.1,0.8,2,2c-0.1,0.6-0.3,1.2-0.5,1.8
		c-0.5,1-1,2.1-1.6,3c-0.5,0.8-0.5,1.5-0.1,2.3c0.5,1.1,0.9,2.2,1.3,3.3c0.2,0.4,0.3,0.8,0.4,1.2c0.3,1.5-0.8,2.7-2.3,2.4
		c-0.7-0.1-1.3-0.4-2-0.7c-1.1-0.5-2.3-1.1-3.4-1.7c-0.6-0.3-1.1-0.3-1.7,0.1c-1,0.7-2,1.4-3,2.1c-0.6,0.4-1.2,0.8-1.8,1
		c-1.6,0.6-3-0.3-3-2c0-0.8,0.1-1.7,0.4-2.4c0.4-1.3,0.1-2.3-1.1-3.1c-1-0.7-1.9-1.4-2.7-2.3c-1.2-1.3-0.9-2.8,0.7-3.5
		c0.3-0.1,0.6-0.2,0.9-0.3c1-0.2,2.1-0.3,3.2-0.4c0.7-0.1,1.4,0,2.2,0c0.2-0.8,0.3-1.6,0.4-2.4c0.1-0.7,0.1-1.3,0.2-2
		c0.1-0.4,0.1-0.8,0.3-1.1c0.5-1.1,1.7-1.4,2.7-0.7c0.5,0.4,1,0.9,1.3,1.5C183.8,201.4,184.4,202.4,185.1,203.6z M175.1,208.4
		c0,0.1-0.1,0.1-0.1,0.2c0.7,0.5,1.3,1.1,2,1.6c1.2,1.1,1.5,2.4,1,3.9c-0.1,0.4-0.2,0.9-0.3,1.3c0.6-0.2,1-0.5,1.5-0.7
		c0.8-0.5,1.6-1.1,2.5-1.6c1.1-0.6,2.3-0.6,3.4,0c0.7,0.3,1.3,0.7,2,1.1c0.2,0.1,0.5,0.2,0.9,0.4c-0.3-0.7-0.4-1.1-0.6-1.6
		c-0.8-1.8-0.8-3.5,0.4-5.1c0.4-0.6,0.7-1.2,1.2-2c-0.5,0.1-0.8,0.2-1,0.3c-0.6,0.2-1.2,0.4-1.8,0.5c-1.8,0.4-2.6,0-3.5-1.5
		c-0.2-0.3-0.3-0.6-0.5-0.9c-0.1-0.2-0.3-0.4-0.5-0.6c-0.2,1.1-0.3,2-0.5,2.9c-0.3,1.4-0.9,1.8-2.3,1.9
		C177.4,208.3,176.2,208.4,175.1,208.4z"/>
	<path class="st5" d="M273.8,142c0.1-0.5,0.2-1,0.4-1.5c0.4-1.1,0.7-2.3,1.3-3.3c0.4-0.7,0.9-1.4,1.5-2c2-1.9,4.8-1.7,6.5,0.5
		c1,1.3,1.5,2.8,1.7,4.4c0.4,2.5,0,5-0.5,7.5c-0.8,3.3-1.9,6.5-3.7,9.5c-0.5,0.8-1,1.6-1.6,2.4c-1,1.2-2.2,1.4-3.5,0.6
		c-0.2-0.1-0.4-0.2-0.5-0.3c-2.4-1.8-4.8-3.6-7.2-5.5c-1.7-1.3-3.1-2.8-4.2-4.7c-0.9-1.5-1.5-3.1-1.4-4.9c0.1-2.3,1.2-4.1,3.3-5.1
		c2.1-1,4-0.7,5.8,0.7C272.4,140.7,273,141.4,273.8,142z M277.4,156.5c0.2-0.3,0.4-0.5,0.5-0.7c2-3.5,3.4-7.2,4-11.1
		c0.3-1.9,0.3-3.7-0.3-5.5c-0.2-0.5-0.4-0.9-0.7-1.3c-0.4-0.6-0.9-0.6-1.4-0.1c-0.2,0.2-0.4,0.5-0.6,0.7c-0.4,0.9-0.8,1.8-1.1,2.7
		c-0.4,1.6-0.6,3.3-0.9,5c-0.2,0.9-0.4,1.8-1.4,2.2c-1,0.3-1.7-0.3-2.3-1c-1.1-1.2-2.3-2.4-3.5-3.6c-0.4-0.4-0.9-0.7-1.4-0.9
		c-1-0.4-1.6-0.1-1.9,1c-0.2,0.9-0.1,1.7,0.3,2.5c0.5,1.2,1.3,2.2,2.2,3.1C271.5,152,274.4,154.2,277.4,156.5z"/>
	<path class="st5" d="M93.3,188.3c0.1-1,0.1-1.8,0.2-2.6c0.2-1.2,0.8-2.2,1.7-3c1.8-1.5,4.2-1.4,5.6,0.5c0.6,0.8,1,1.7,1.3,2.6
		c0.7,2.2,1.2,4.5,1.8,6.7c0.4,1.6-0.1,2.7-1.6,3.6c-1.7,1.1-3.6,1.7-5.6,2c-1.3,0.2-2.7,0.4-4,0c-2.1-0.6-3.7-1.8-4.6-3.8
		c-1-2.1-0.3-4.3,1.9-5.4c0.7-0.3,1.5-0.4,2.3-0.6C92.6,188.3,93,188.3,93.3,188.3z M100.6,193.2c-0.4-1.9-0.8-3.6-1.2-5.4
		c-0.1-0.4-0.2-0.8-0.3-1.1c-0.1-0.3-0.2-0.7-0.3-1c-0.4-0.9-0.9-1.3-1.5-1.1c-0.6,0.2-0.8,0.6-0.7,1.7c0.1,1,0.1,2,0.1,3.1
		c0,1.4-0.7,2-2.1,1.9c-0.5,0-1-0.1-1.4,0c-0.5,0.1-1.1,0.2-1.6,0.4c-0.8,0.3-0.9,0.8-0.5,1.5c0.6,1,1.4,1.7,2.5,1.8
		C96.1,195.2,98.4,194.5,100.6,193.2z"/>
	<path class="st5" d="M326.1,194.6c0.9,0.1,1.8,0.2,2.6,0.4c1.2,0.3,2.2,0.9,2.9,1.9c1.4,1.9,1.1,4.3-0.9,5.6
		c-0.8,0.5-1.8,0.9-2.7,1.1c-2.3,0.5-4.6,0.9-6.9,1.2c-1.6,0.3-2.7-0.3-3.5-1.8c-0.9-1.8-1.4-3.8-1.6-5.8c-0.1-1.3-0.2-2.7,0.3-4
		c0.7-2.1,2.1-3.5,4.1-4.3c2.2-0.9,4.3,0.1,5.2,2.3c0.3,0.7,0.3,1.5,0.4,2.3C326.1,193.8,326.1,194.2,326.1,194.6z M320.6,201.4
		c1.9-0.3,3.7-0.5,5.4-0.8c0.4-0.1,0.8-0.1,1.2-0.2c0.3-0.1,0.7-0.2,1-0.3c1-0.3,1.4-0.8,1.3-1.5c-0.1-0.6-0.6-0.8-1.6-0.8
		c-1,0-2.1,0-3.1-0.1c-1.4-0.1-1.9-0.9-1.8-2.2c0.1-0.5,0.2-0.9,0.1-1.4c0-0.5-0.1-1.1-0.3-1.6c-0.3-0.8-0.7-1-1.5-0.6
		c-1,0.5-1.8,1.3-2,2.4C319,196.8,319.5,199.1,320.6,201.4z"/>
</g>
</svg>
